<?xml version="1.0" encoding="UTF-8" standalone="no"?>
<!DOCTYPE svg PUBLIC "-//W3C//DTD SVG 1.1//EN" "http://www.w3.org/Graphics/SVG/1.1/DTD/svg11.dtd">
<svg width="100%" height="100%" viewBox="0 0 2650 400" version="1.1" xmlns="http://www.w3.org/2000/svg" xmlns:xlink="http://www.w3.org/1999/xlink" xml:space="preserve" xmlns:serif="http://www.serif.com/" style="fill-rule:evenodd;clip-rule:evenodd;stroke-miterlimit:1.5;">
    <g transform="matrix(1,0,0,1,-162.988,-1280.01)">
        <g id="Underline" transform="matrix(1.01149,4.33681e-19,-1.0842e-19,0.439765,189.449,1454.74)">
            <path d="M276.368,231.684L974.094,230.209" style="fill:none;stroke:rgb(134,134,134);stroke-width:13.68px;"/>
        </g>
        <g transform="matrix(0.911965,-0.00185398,0.00185398,0.911965,-429.231,428.316)">
            <g transform="matrix(303.425,0,0,303.425,674.341,1207.03)">
                <path d="M0.018,-0.09C0.018,0.123 0.213,0.296 0.454,0.296C0.717,0.296 0.932,0.117 0.932,-0.102C0.932,-0.234 0.847,-0.376 0.654,-0.39L0.654,-0.394C0.751,-0.406 0.808,-0.44 0.808,-0.496C0.808,-0.56 0.708,-0.6 0.56,-0.6L0.172,-0.6L0.172,-0.592C0.244,-0.592 0.252,-0.582 0.252,-0.505L0.252,-0.355C0.118,-0.327 0.018,-0.219 0.018,-0.09ZM0.042,-0.092C0.042,-0.21 0.132,-0.309 0.252,-0.335L0.252,-0.111C0.252,-0.032 0.244,-0.024 0.172,-0.024L0.172,-0.016L0.352,-0.012C0.372,-0.03 0.38,-0.058 0.38,-0.104L0.38,-0.332C0.465,-0.305 0.525,-0.226 0.525,-0.132C0.525,-0.046 0.478,0.044 0.37,0.081C0.522,0.081 0.606,-0.029 0.606,-0.137C0.606,-0.246 0.51,-0.336 0.38,-0.357L0.38,-0.478C0.38,-0.526 0.378,-0.537 0.36,-0.555L0.546,-0.555C0.628,-0.555 0.672,-0.531 0.672,-0.487C0.672,-0.438 0.629,-0.405 0.565,-0.405L0.455,-0.405L0.455,-0.383L0.584,-0.371C0.736,-0.356 0.796,-0.217 0.796,-0.074C0.796,0.112 0.642,0.263 0.454,0.263C0.227,0.263 0.042,0.104 0.042,-0.092Z" style="fill:rgb(128,128,128);fill-rule:nonzero;"/>
            </g>
            <g transform="matrix(252.854,0,0,252.854,977.766,1207.03)">
                <path d="M0.015,-0L0.606,-0C0.622,-0 0.626,-0.002 0.633,-0.009L0.634,-0.009L0.64,0.05L0.645,0.05L0.66,-0.193L0.655,-0.193L0.643,-0.163C0.605,-0.068 0.547,-0.044 0.445,-0.044L0.22,-0.044L0.22,-0.045C0.237,-0.063 0.241,-0.09 0.241,-0.135L0.241,-0.505C0.241,-0.583 0.251,-0.592 0.336,-0.592L0.336,-0.6L0.015,-0.6L0.015,-0.592C0.101,-0.592 0.11,-0.583 0.11,-0.505L0.11,-0.095C0.11,-0.017 0.101,-0.008 0.015,-0.008L0.015,-0Z" style="fill:rgb(128,128,128);fill-rule:nonzero;"/>
            </g>
            <g transform="matrix(252.854,0,0,252.854,1157.29,1207.03)">
                <path d="M0.005,-0L0.237,-0L0.237,-0.005L0.189,-0.01C0.161,-0.013 0.144,-0.034 0.144,-0.059C0.144,-0.068 0.146,-0.078 0.151,-0.087L0.179,-0.143C0.218,-0.209 0.302,-0.233 0.394,-0.233L0.481,-0.233L0.461,-0.282L0.399,-0.282C0.324,-0.282 0.258,-0.253 0.209,-0.201L0.354,-0.486C0.364,-0.508 0.368,-0.52 0.368,-0.528L0.376,-0.528C0.376,-0.515 0.377,-0.498 0.383,-0.484L0.585,-0.058C0.593,-0.041 0.602,-0.024 0.616,-0.019L0.616,-0.017L0.521,-0.005L0.521,0L0.813,0L0.813,-0.005L0.784,-0.009C0.746,-0.014 0.734,-0.037 0.718,-0.071L0.492,-0.551C0.482,-0.571 0.48,-0.589 0.479,-0.6C0.42,-0.6 0.394,-0.611 0.394,-0.64L0.39,-0.64L0.109,-0.081C0.091,-0.045 0.068,-0.014 0.033,-0.009L0.005,-0.005L0.005,-0Z" style="fill:rgb(128,128,128);fill-rule:nonzero;"/>
            </g>
            <g transform="matrix(252.854,0,0,252.854,1364.13,1207.03)">
                <path d="M0.015,-0L0.369,-0C0.627,-0 0.8,-0.12 0.8,-0.3C0.8,-0.48 0.627,-0.6 0.369,-0.6L0.015,-0.6L0.015,-0.592C0.101,-0.592 0.11,-0.583 0.11,-0.505L0.11,-0.095C0.11,-0.017 0.101,-0.008 0.015,-0.008L0.015,-0ZM0.22,-0.044L0.22,-0.045C0.237,-0.063 0.241,-0.092 0.241,-0.137L0.241,-0.463C0.241,-0.509 0.238,-0.537 0.22,-0.555L0.22,-0.556L0.347,-0.556C0.535,-0.556 0.661,-0.454 0.661,-0.3C0.661,-0.146 0.535,-0.044 0.347,-0.044L0.22,-0.044Z" style="fill:rgb(128,128,128);fill-rule:nonzero;"/>
            </g>
            <g transform="matrix(252.854,0,0,252.854,1582.85,1207.03)">
                <path d="M0.015,-0L0.639,-0C0.655,-0 0.659,-0.002 0.666,-0.009L0.667,-0.009L0.673,0.07L0.679,0.07L0.693,-0.193L0.688,-0.193L0.676,-0.163C0.638,-0.068 0.567,-0.044 0.465,-0.044L0.22,-0.044L0.22,-0.045C0.237,-0.063 0.241,-0.092 0.241,-0.137L0.241,-0.28L0.303,-0.28C0.39,-0.28 0.421,-0.275 0.443,-0.181L0.449,-0.156L0.454,-0.156L0.454,-0.447L0.449,-0.447L0.443,-0.422C0.421,-0.328 0.39,-0.324 0.303,-0.324L0.241,-0.324L0.241,-0.463C0.241,-0.509 0.238,-0.537 0.22,-0.555L0.22,-0.556L0.421,-0.556C0.523,-0.556 0.594,-0.532 0.632,-0.437L0.644,-0.407L0.649,-0.407L0.634,-0.675L0.625,-0.675L0.623,-0.591L0.621,-0.591C0.614,-0.598 0.611,-0.6 0.595,-0.6L0.015,-0.6L0.015,-0.592C0.101,-0.592 0.11,-0.583 0.11,-0.505L0.11,-0.145C0.11,-0.022 0.101,-0.008 0.015,-0.008L0.015,-0Z" style="fill:rgb(128,128,128);fill-rule:nonzero;"/>
            </g>
            <g transform="matrix(303.425,0,0,303.425,1775.02,1207.03)">
                <path d="M-0.03,0.172C-0.03,0.351 0.144,0.496 0.358,0.496C0.597,0.496 0.792,0.33 0.792,0.13C0.792,-0.105 0.626,-0.234 0.385,-0.286C0.29,-0.306 0.184,-0.335 0.184,-0.387C0.184,-0.436 0.246,-0.468 0.341,-0.468C0.432,-0.468 0.517,-0.418 0.553,-0.332L0.558,-0.319L0.568,-0.319L0.556,-0.555L0.547,-0.554L0.547,-0.469C0.547,-0.455 0.548,-0.443 0.55,-0.436L0.545,-0.435C0.544,-0.438 0.533,-0.454 0.526,-0.459C0.475,-0.497 0.405,-0.505 0.338,-0.505C0.19,-0.505 0.091,-0.447 0.091,-0.359C0.091,-0.252 0.226,-0.215 0.335,-0.189C0.576,-0.134 0.68,-0.01 0.68,0.148C0.68,0.32 0.533,0.46 0.352,0.46C0.157,0.46 -0.012,0.331 -0.012,0.172C-0.012,0.045 0.092,-0.058 0.22,-0.058C0.338,-0.058 0.434,0.037 0.434,0.154C0.434,0.253 0.37,0.336 0.274,0.367C0.401,0.367 0.505,0.269 0.505,0.149C0.505,0.025 0.379,-0.076 0.224,-0.076C0.084,-0.076 -0.03,0.035 -0.03,0.172Z" style="fill:rgb(128,128,128);fill-rule:nonzero;"/>
            </g>
        </g>
        <g transform="matrix(1.43609,-0.00291951,0.00296109,1.45654,-2143.73,-439.868)">
            <g transform="matrix(173.573,0,0,173.573,2426.69,1315.91)">
                <path d="M0.386,-0.69C0.407,-0.675 0.426,-0.656 0.441,-0.634C0.456,-0.612 0.463,-0.589 0.463,-0.564L0.463,-0.562C0.462,-0.561 0.462,-0.56 0.462,-0.559L0.462,-0.551C0.461,-0.55 0.461,-0.549 0.461,-0.547L0.461,-0.541C0.46,-0.536 0.458,-0.532 0.456,-0.529C0.455,-0.523 0.453,-0.519 0.451,-0.516L0.439,-0.489C0.439,-0.488 0.439,-0.488 0.438,-0.487C0.435,-0.484 0.434,-0.482 0.434,-0.479L0.339,-0.395L0.436,-0.231L0.556,-0.329C0.557,-0.328 0.558,-0.327 0.559,-0.327L0.561,-0.327C0.561,-0.326 0.562,-0.326 0.563,-0.326L0.565,-0.326C0.565,-0.325 0.566,-0.325 0.567,-0.325L0.57,-0.322C0.579,-0.313 0.588,-0.306 0.597,-0.301C0.601,-0.299 0.611,-0.295 0.626,-0.29L0.629,-0.29C0.63,-0.289 0.631,-0.289 0.632,-0.289L0.64,-0.289C0.642,-0.289 0.651,-0.291 0.668,-0.294L0.67,-0.294C0.671,-0.294 0.671,-0.294 0.672,-0.295L0.674,-0.295C0.675,-0.295 0.675,-0.295 0.676,-0.296L0.678,-0.296C0.674,-0.275 0.664,-0.258 0.649,-0.246C0.632,-0.233 0.615,-0.225 0.599,-0.222L0.595,-0.222C0.594,-0.221 0.593,-0.221 0.591,-0.221L0.583,-0.221C0.555,-0.221 0.533,-0.23 0.517,-0.248L0.513,-0.248C0.513,-0.248 0.513,-0.248 0.512,-0.249L0.507,-0.249C0.507,-0.249 0.507,-0.249 0.506,-0.25L0.504,-0.25L0.45,-0.207C0.461,-0.175 0.479,-0.149 0.502,-0.128C0.528,-0.105 0.557,-0.093 0.589,-0.093C0.594,-0.093 0.598,-0.093 0.601,-0.094C0.604,-0.095 0.609,-0.096 0.615,-0.097C0.617,-0.097 0.62,-0.098 0.624,-0.099C0.625,-0.099 0.628,-0.1 0.632,-0.101C0.641,-0.108 0.655,-0.118 0.674,-0.132L0.674,-0.126C0.674,-0.093 0.661,-0.065 0.635,-0.043C0.612,-0.024 0.582,-0.012 0.547,-0.007L0.541,-0.007C0.54,-0.006 0.538,-0.006 0.535,-0.006L0.525,-0.006C0.526,-0.006 0.516,-0.007 0.494,-0.009C0.487,-0.01 0.478,-0.013 0.467,-0.017C0.438,-0.032 0.409,-0.061 0.379,-0.102C0.374,-0.109 0.37,-0.115 0.368,-0.118C0.368,-0.119 0.367,-0.121 0.366,-0.123C0.365,-0.124 0.364,-0.126 0.363,-0.127C0.362,-0.128 0.362,-0.129 0.361,-0.131C0.36,-0.132 0.358,-0.133 0.357,-0.134L0.169,0.012L0.031,-0.194L0.229,-0.351L0.13,-0.531L0.14,-0.564C0.167,-0.579 0.207,-0.601 0.261,-0.63C0.303,-0.651 0.345,-0.671 0.386,-0.688L0.386,-0.69ZM0.244,-0.32L0.138,-0.236L0.244,-0.076L0.252,-0.076L0.343,-0.153L0.244,-0.32ZM0.3,-0.612C0.285,-0.609 0.273,-0.602 0.262,-0.592C0.251,-0.581 0.246,-0.569 0.246,-0.555L0.246,-0.548L0.247,-0.548L0.247,-0.545C0.247,-0.545 0.247,-0.545 0.248,-0.544L0.248,-0.543L0.32,-0.421C0.338,-0.428 0.353,-0.44 0.366,-0.46C0.378,-0.478 0.384,-0.497 0.384,-0.514L0.384,-0.523C0.383,-0.524 0.383,-0.525 0.383,-0.527L0.383,-0.532C0.382,-0.533 0.382,-0.534 0.382,-0.537C0.381,-0.544 0.379,-0.55 0.377,-0.555C0.375,-0.56 0.372,-0.566 0.367,-0.574C0.359,-0.585 0.348,-0.594 0.335,-0.603C0.334,-0.603 0.333,-0.603 0.332,-0.604L0.329,-0.604C0.328,-0.604 0.328,-0.604 0.327,-0.605C0.326,-0.605 0.326,-0.605 0.326,-0.606L0.323,-0.606C0.322,-0.606 0.322,-0.606 0.322,-0.607C0.32,-0.607 0.317,-0.608 0.313,-0.609C0.312,-0.609 0.311,-0.609 0.309,-0.61L0.306,-0.61L0.3,-0.612Z" style="fill:rgb(191,191,191);fill-rule:nonzero;"/>
            </g>
        </g>
        <g transform="matrix(0.892538,-0.00433605,0.00433605,0.892538,644.602,285.248)">
            <g transform="matrix(449.195,0,0,449.195,901.502,1473.13)">
                <path d="M0.039,-0.696C0.054,-0.665 0.076,-0.647 0.107,-0.641L0.444,-0.655C0.469,-0.653 0.504,-0.65 0.551,-0.645C0.584,-0.64 0.614,-0.626 0.641,-0.601C0.666,-0.578 0.686,-0.551 0.7,-0.518C0.713,-0.489 0.723,-0.458 0.731,-0.425C0.732,-0.422 0.734,-0.416 0.735,-0.409C0.735,-0.406 0.736,-0.401 0.738,-0.394C0.74,-0.387 0.742,-0.376 0.744,-0.362C0.745,-0.357 0.747,-0.34 0.748,-0.312C0.75,-0.278 0.751,-0.261 0.751,-0.26L0.751,-0.226C0.751,-0.218 0.751,-0.212 0.752,-0.209L0.752,-0.142L0.75,-0.093C0.697,-0.073 0.642,-0.038 0.585,0.012C0.576,0.009 0.549,0.002 0.503,-0.009C0.494,-0.011 0.48,-0.014 0.461,-0.018C0.433,-0.024 0.412,-0.027 0.397,-0.027C0.376,-0.03 0.354,-0.031 0.333,-0.031L0.308,-0.031C0.307,-0.03 0.304,-0.03 0.3,-0.03C0.289,-0.029 0.272,-0.028 0.25,-0.025C0.239,-0.024 0.223,-0.02 0.202,-0.015C0.153,-0.002 0.107,0.017 0.062,0.043L0.059,0.043C0.058,0.043 0.058,0.043 0.057,0.044L0.051,0.044C0.051,0.044 0.051,0.044 0.05,0.045L0.043,0.045C0.043,0.044 0.044,0.041 0.045,0.037C0.046,0.035 0.046,0.034 0.047,0.034C0.048,0.034 0.048,0.034 0.049,0.033C0.05,0.032 0.05,0.031 0.05,0.03C0.05,0.029 0.05,0.029 0.051,0.028L0.052,0.028L0.052,0.027L0.258,-0.107C0.279,-0.121 0.298,-0.141 0.315,-0.167C0.33,-0.19 0.338,-0.216 0.341,-0.246L0.341,-0.254C0.34,-0.255 0.34,-0.258 0.34,-0.263C0.339,-0.268 0.339,-0.273 0.339,-0.28C0.337,-0.302 0.336,-0.313 0.336,-0.314L0.336,-0.323C0.335,-0.327 0.335,-0.33 0.335,-0.332L0.335,-0.349C0.335,-0.36 0.335,-0.37 0.336,-0.381C0.337,-0.396 0.339,-0.418 0.342,-0.447C0.343,-0.454 0.346,-0.464 0.349,-0.479C0.354,-0.503 0.36,-0.524 0.366,-0.541L0.36,-0.543C0.359,-0.542 0.358,-0.541 0.357,-0.541L0.356,-0.541L0.355,-0.54L0.352,-0.54C0.351,-0.539 0.35,-0.539 0.349,-0.538C0.348,-0.537 0.346,-0.537 0.345,-0.537C0.314,-0.516 0.294,-0.49 0.287,-0.459L0.287,-0.449C0.286,-0.447 0.286,-0.444 0.286,-0.439C0.285,-0.432 0.285,-0.425 0.285,-0.418C0.284,-0.417 0.284,-0.415 0.284,-0.412L0.284,-0.406C0.284,-0.407 0.284,-0.401 0.283,-0.389L0.282,-0.371C0.281,-0.358 0.281,-0.347 0.281,-0.337L0.281,-0.322C0.281,-0.315 0.281,-0.311 0.282,-0.308C0.282,-0.297 0.282,-0.287 0.283,-0.278C0.283,-0.269 0.284,-0.259 0.285,-0.25C0.28,-0.205 0.262,-0.166 0.232,-0.133C0.201,-0.099 0.167,-0.07 0.128,-0.044L0.091,-0.019C0.075,-0.008 0.063,-0.001 0.056,0.002L0.043,0.002C0.043,0.002 0.048,-0.003 0.059,-0.014C0.063,-0.018 0.069,-0.024 0.076,-0.032C0.101,-0.06 0.116,-0.078 0.121,-0.087C0.136,-0.109 0.143,-0.131 0.143,-0.153L0.143,-0.157C0.142,-0.158 0.142,-0.16 0.141,-0.163C0.14,-0.166 0.14,-0.169 0.14,-0.172L0.14,-0.176C0.139,-0.177 0.138,-0.179 0.138,-0.18L0.138,-0.184C0.137,-0.185 0.136,-0.188 0.135,-0.191C0.134,-0.191 0.134,-0.192 0.134,-0.193C0.128,-0.207 0.12,-0.219 0.11,-0.228C0.099,-0.237 0.087,-0.242 0.074,-0.242L0.062,-0.244C0.057,-0.241 0.049,-0.236 0.039,-0.23C0.035,-0.227 0.028,-0.222 0.019,-0.216L0.014,-0.211C0.014,-0.241 0.026,-0.265 0.05,-0.283C0.072,-0.298 0.099,-0.306 0.13,-0.306L0.136,-0.306L0.163,-0.308C0.165,-0.408 0.215,-0.484 0.314,-0.537L0.13,-0.539C0.107,-0.539 0.085,-0.551 0.063,-0.576C0.046,-0.599 0.036,-0.623 0.033,-0.647L0.033,-0.665C0.033,-0.667 0.034,-0.671 0.035,-0.676L0.036,-0.677L0.036,-0.679C0.036,-0.68 0.036,-0.681 0.037,-0.684C0.037,-0.686 0.037,-0.687 0.038,-0.688C0.038,-0.689 0.038,-0.69 0.039,-0.691L0.039,-0.696ZM0.531,-0.225C0.53,-0.224 0.525,-0.223 0.516,-0.221C0.505,-0.219 0.489,-0.214 0.468,-0.205C0.461,-0.202 0.451,-0.196 0.44,-0.186L0.44,-0.128C0.498,-0.119 0.547,-0.11 0.588,-0.1C0.599,-0.097 0.615,-0.093 0.636,-0.087C0.636,-0.088 0.636,-0.089 0.637,-0.092L0.637,-0.096C0.637,-0.097 0.637,-0.099 0.638,-0.101L0.638,-0.133C0.637,-0.135 0.637,-0.138 0.637,-0.141L0.637,-0.157C0.636,-0.164 0.635,-0.169 0.635,-0.173L0.632,-0.188C0.625,-0.193 0.613,-0.2 0.596,-0.209C0.584,-0.216 0.571,-0.22 0.557,-0.221C0.556,-0.221 0.554,-0.221 0.552,-0.222L0.547,-0.222C0.546,-0.222 0.544,-0.222 0.542,-0.223L0.537,-0.223L0.531,-0.225ZM0.417,-0.543L0.39,-0.541C0.389,-0.538 0.386,-0.533 0.383,-0.526C0.383,-0.525 0.382,-0.522 0.381,-0.519C0.38,-0.516 0.379,-0.513 0.378,-0.511C0.377,-0.505 0.374,-0.495 0.37,-0.481L0.37,-0.477C0.369,-0.475 0.369,-0.473 0.369,-0.471C0.368,-0.469 0.368,-0.466 0.368,-0.462L0.368,-0.453C0.367,-0.45 0.367,-0.447 0.367,-0.443C0.365,-0.429 0.364,-0.419 0.364,-0.414L0.364,-0.404C0.364,-0.399 0.364,-0.393 0.363,-0.384C0.362,-0.375 0.361,-0.368 0.361,-0.364C0.36,-0.347 0.36,-0.334 0.36,-0.327L0.36,-0.312C0.36,-0.297 0.36,-0.287 0.361,-0.282L0.365,-0.249C0.365,-0.247 0.365,-0.245 0.366,-0.242L0.366,-0.234C0.361,-0.203 0.347,-0.169 0.326,-0.134L0.349,-0.136C0.352,-0.134 0.357,-0.133 0.364,-0.133L0.381,-0.133C0.39,-0.132 0.396,-0.131 0.399,-0.131L0.408,-0.131C0.41,-0.13 0.413,-0.13 0.417,-0.13L0.417,-0.543ZM0.628,-0.345C0.627,-0.344 0.625,-0.342 0.622,-0.34C0.619,-0.338 0.618,-0.337 0.617,-0.336C0.613,-0.335 0.609,-0.334 0.605,-0.332C0.6,-0.329 0.597,-0.327 0.594,-0.324C0.593,-0.324 0.591,-0.324 0.588,-0.323C0.585,-0.322 0.583,-0.321 0.582,-0.32C0.566,-0.315 0.55,-0.312 0.535,-0.312C0.505,-0.312 0.474,-0.322 0.442,-0.341L0.442,-0.219C0.463,-0.228 0.479,-0.233 0.49,-0.236C0.496,-0.238 0.504,-0.24 0.514,-0.241C0.516,-0.241 0.52,-0.241 0.525,-0.242L0.537,-0.242C0.542,-0.242 0.55,-0.241 0.561,-0.24C0.566,-0.24 0.575,-0.239 0.586,-0.236C0.591,-0.235 0.599,-0.233 0.61,-0.228L0.628,-0.221C0.631,-0.22 0.633,-0.218 0.634,-0.217L0.628,-0.345ZM0.44,-0.539L0.44,-0.384C0.443,-0.368 0.451,-0.357 0.462,-0.351C0.471,-0.345 0.485,-0.34 0.502,-0.336C0.511,-0.334 0.516,-0.333 0.517,-0.333L0.535,-0.333C0.536,-0.333 0.538,-0.333 0.539,-0.334L0.545,-0.334C0.546,-0.334 0.547,-0.334 0.548,-0.335L0.55,-0.335C0.566,-0.338 0.578,-0.342 0.586,-0.347C0.594,-0.351 0.605,-0.358 0.62,-0.368C0.62,-0.369 0.621,-0.372 0.622,-0.376C0.622,-0.377 0.622,-0.378 0.623,-0.381L0.623,-0.386C0.623,-0.387 0.623,-0.387 0.624,-0.388L0.624,-0.4C0.623,-0.401 0.623,-0.402 0.623,-0.404L0.623,-0.409C0.622,-0.41 0.622,-0.411 0.622,-0.413C0.617,-0.436 0.606,-0.458 0.588,-0.479C0.57,-0.5 0.552,-0.515 0.533,-0.524C0.532,-0.525 0.53,-0.525 0.529,-0.526C0.527,-0.527 0.524,-0.528 0.52,-0.529C0.519,-0.53 0.515,-0.532 0.508,-0.533C0.507,-0.533 0.505,-0.533 0.502,-0.534L0.495,-0.534C0.492,-0.534 0.488,-0.535 0.483,-0.536L0.469,-0.536C0.468,-0.536 0.466,-0.536 0.463,-0.537L0.457,-0.537L0.44,-0.539Z" style="fill:rgb(64,64,64);fill-rule:nonzero;"/>
            </g>
            <g transform="matrix(449.195,0,0,449.195,1279.72,1473.13)">
                <path d="M0.085,-0.498L0.087,-0.498C0.089,-0.496 0.091,-0.495 0.093,-0.495L0.095,-0.495C0.096,-0.494 0.096,-0.494 0.097,-0.493C0.098,-0.492 0.099,-0.492 0.1,-0.492C0.104,-0.488 0.107,-0.486 0.109,-0.485C0.111,-0.484 0.113,-0.482 0.114,-0.481C0.115,-0.48 0.115,-0.479 0.116,-0.478C0.117,-0.477 0.118,-0.476 0.119,-0.476C0.12,-0.475 0.121,-0.474 0.122,-0.473C0.122,-0.472 0.123,-0.471 0.124,-0.47C0.125,-0.469 0.125,-0.468 0.125,-0.467C0.125,-0.469 0.126,-0.467 0.128,-0.461C0.13,-0.46 0.132,-0.457 0.134,-0.453C0.135,-0.452 0.136,-0.45 0.137,-0.447C0.137,-0.447 0.138,-0.445 0.139,-0.441C0.14,-0.441 0.14,-0.44 0.141,-0.439C0.142,-0.438 0.142,-0.436 0.142,-0.435C0.142,-0.434 0.143,-0.432 0.144,-0.43C0.145,-0.428 0.145,-0.427 0.146,-0.427C0.146,-0.426 0.147,-0.424 0.148,-0.421C0.149,-0.418 0.149,-0.416 0.15,-0.415C0.15,-0.414 0.15,-0.413 0.151,-0.412L0.151,-0.409L0.248,-0.496L0.312,-0.421L0.314,-0.413L0.248,-0.353L0.19,-0.415L0.151,-0.38L0.151,-0.12C0.164,-0.103 0.181,-0.09 0.2,-0.081L0.236,-0.112L0.254,-0.095L0.138,0.004C0.104,-0.033 0.066,-0.06 0.025,-0.077C0.037,-0.086 0.045,-0.097 0.048,-0.11C0.056,-0.121 0.06,-0.135 0.06,-0.151L0.06,-0.371C0.059,-0.372 0.059,-0.373 0.059,-0.375L0.059,-0.379C0.058,-0.38 0.058,-0.381 0.058,-0.384C0.057,-0.386 0.054,-0.392 0.048,-0.403C0.044,-0.409 0.039,-0.414 0.033,-0.417L0.01,-0.405L0.002,-0.419L0.085,-0.498Z" style="fill:rgb(64,64,64);fill-rule:nonzero;"/>
            </g>
            <g transform="matrix(449.195,0,0,449.195,1435.15,1473.13)">
                <path d="M0.176,-0.496L0.31,-0.444L0.31,-0.443L0.312,-0.445C0.313,-0.447 0.317,-0.45 0.323,-0.455C0.328,-0.46 0.333,-0.462 0.337,-0.463C0.338,-0.463 0.339,-0.463 0.34,-0.464L0.343,-0.464C0.344,-0.464 0.345,-0.464 0.346,-0.465L0.349,-0.465L0.353,-0.467C0.35,-0.462 0.347,-0.456 0.342,-0.448C0.339,-0.444 0.336,-0.438 0.333,-0.43C0.329,-0.421 0.323,-0.408 0.316,-0.391L0.314,-0.109C0.315,-0.106 0.315,-0.105 0.316,-0.104C0.316,-0.103 0.316,-0.102 0.317,-0.101L0.317,-0.098C0.317,-0.097 0.317,-0.096 0.318,-0.095L0.318,-0.093C0.319,-0.091 0.322,-0.088 0.325,-0.083C0.326,-0.082 0.329,-0.08 0.335,-0.075C0.335,-0.074 0.336,-0.073 0.337,-0.073L0.338,-0.073C0.338,-0.072 0.338,-0.072 0.339,-0.072L0.357,-0.085L0.372,-0.072L0.285,0.004L0.279,0.004C0.268,0.004 0.258,-0.001 0.25,-0.01C0.24,-0.023 0.234,-0.035 0.231,-0.045C0.229,-0.05 0.227,-0.057 0.225,-0.068C0.222,-0.079 0.221,-0.085 0.221,-0.087L0.221,-0.094C0.22,-0.094 0.22,-0.095 0.22,-0.096L0.22,-0.101C0.219,-0.102 0.219,-0.103 0.219,-0.104L0.219,-0.11L0.087,0.004C0.063,-0.009 0.044,-0.028 0.029,-0.052C0.014,-0.075 0.006,-0.1 0.006,-0.126L0.006,-0.131C0.006,-0.132 0.006,-0.133 0.007,-0.134L0.007,-0.144C0.007,-0.145 0.007,-0.146 0.008,-0.147L0.008,-0.149C0.008,-0.15 0.011,-0.16 0.016,-0.18C0.031,-0.234 0.059,-0.278 0.101,-0.312L0.052,-0.452C0.053,-0.45 0.054,-0.449 0.055,-0.449L0.061,-0.449C0.061,-0.448 0.062,-0.448 0.063,-0.448L0.077,-0.448C0.079,-0.448 0.081,-0.448 0.082,-0.449C0.083,-0.449 0.085,-0.449 0.086,-0.45L0.088,-0.45C0.102,-0.452 0.118,-0.457 0.135,-0.465C0.15,-0.472 0.164,-0.482 0.176,-0.494L0.176,-0.496ZM0.122,-0.293C0.11,-0.277 0.102,-0.262 0.098,-0.249C0.093,-0.236 0.091,-0.221 0.091,-0.205L0.091,-0.191C0.091,-0.186 0.092,-0.181 0.093,-0.177C0.098,-0.142 0.114,-0.106 0.14,-0.07L0.151,-0.076L0.221,-0.138L0.221,-0.236L0.122,-0.293ZM0.083,-0.43L0.122,-0.32L0.219,-0.264L0.219,-0.38L0.095,-0.43L0.083,-0.43Z" style="fill:rgb(64,64,64);fill-rule:nonzero;"/>
            </g>
            <g transform="matrix(449.195,0,0,449.195,1618.42,1473.13)">
                <path d="M0.194,-0.498L0.347,-0.424L0.357,-0.424L0.43,-0.475L0.43,-0.37L0.347,-0.37L0.347,-0.107C0.347,-0.105 0.348,-0.102 0.349,-0.098C0.349,-0.097 0.349,-0.096 0.35,-0.095C0.35,-0.094 0.351,-0.092 0.352,-0.091C0.355,-0.083 0.361,-0.07 0.37,-0.052L0.421,0.023L0.421,0.027C0.421,0.028 0.422,0.03 0.423,0.031L0.423,0.035C0.423,0.036 0.423,0.036 0.424,0.037L0.424,0.042C0.423,0.043 0.423,0.044 0.423,0.045L0.423,0.049C0.422,0.05 0.422,0.051 0.422,0.052C0.422,0.053 0.422,0.055 0.421,0.058C0.42,0.061 0.419,0.064 0.418,0.065C0.417,0.066 0.417,0.067 0.416,0.069C0.415,0.071 0.414,0.073 0.413,0.074L0.406,0.081C0.405,0.082 0.403,0.083 0.402,0.084L0.399,0.087L0.3,0.143C0.299,0.143 0.296,0.142 0.292,0.141C0.288,0.14 0.285,0.139 0.283,0.138C0.278,0.136 0.272,0.134 0.265,0.133C0.261,0.132 0.255,0.13 0.248,0.128C0.245,0.127 0.239,0.126 0.23,0.125C0.203,0.122 0.185,0.12 0.174,0.12L0.165,0.12C0.164,0.12 0.155,0.121 0.136,0.124C0.137,0.124 0.13,0.125 0.116,0.127C0.113,0.128 0.11,0.129 0.106,0.13C0.105,0.13 0.099,0.132 0.089,0.135C0.087,0.135 0.084,0.136 0.081,0.137C0.077,0.138 0.071,0.14 0.062,0.141C0.061,0.141 0.059,0.141 0.057,0.142L0.051,0.142C0.05,0.142 0.048,0.142 0.045,0.143L0.039,0.143L0.037,0.124L0.143,-0.006L0.045,-0.076L0.045,-0.428C0.104,-0.437 0.153,-0.459 0.194,-0.496L0.194,-0.498ZM0.252,-0.089L0.134,0.056L0.146,0.053C0.154,0.051 0.162,0.05 0.17,0.05C0.174,0.049 0.18,0.048 0.189,0.048L0.198,0.048C0.248,0.048 0.301,0.06 0.357,0.085L0.36,0.076C0.335,0.05 0.315,0.025 0.298,-0C0.279,-0.029 0.263,-0.058 0.252,-0.087L0.252,-0.089ZM0.14,-0.417L0.14,-0.114L0.198,-0.074C0.225,-0.094 0.243,-0.118 0.252,-0.145L0.252,-0.376L0.14,-0.417Z" style="fill:rgb(64,64,64);fill-rule:nonzero;"/>
            </g>
            <g transform="matrix(449.195,0,0,449.195,1831.78,1473.13)">
                <path d="M0.18,-0.498C0.198,-0.483 0.219,-0.469 0.244,-0.457C0.269,-0.444 0.291,-0.435 0.31,-0.43L0.343,-0.421L0.343,-0.076L0.192,0.004L0.064,-0.062L0.012,-0.076L0.033,-0.107L0.039,-0.14L0.039,-0.415C0.064,-0.42 0.089,-0.43 0.114,-0.445C0.139,-0.46 0.161,-0.477 0.18,-0.496L0.18,-0.498ZM0.136,-0.409L0.136,-0.122L0.246,-0.074L0.246,-0.362L0.136,-0.409Z" style="fill:rgb(64,64,64);fill-rule:nonzero;"/>
            </g>
            <g transform="matrix(449.195,0,0,449.195,2015.06,1473.13)">
                <path d="M0.089,-0.498C0.107,-0.482 0.122,-0.465 0.135,-0.446C0.148,-0.427 0.154,-0.407 0.155,-0.384L0.279,-0.496L0.347,-0.428L0.388,-0.463L0.401,-0.45C0.4,-0.448 0.4,-0.447 0.399,-0.446L0.397,-0.444C0.379,-0.426 0.367,-0.405 0.36,-0.38L0.36,-0.112C0.36,-0.112 0.36,-0.11 0.361,-0.107C0.362,-0.104 0.363,-0.101 0.364,-0.1C0.365,-0.099 0.365,-0.096 0.366,-0.093L0.377,-0.08C0.38,-0.077 0.382,-0.075 0.384,-0.074L0.405,-0.091L0.421,-0.074L0.329,0.004C0.314,-0.001 0.302,-0.009 0.292,-0.02C0.281,-0.035 0.273,-0.049 0.269,-0.06L0.269,-0.362C0.268,-0.362 0.267,-0.363 0.267,-0.364C0.267,-0.365 0.267,-0.366 0.266,-0.367C0.265,-0.368 0.265,-0.369 0.264,-0.369C0.263,-0.374 0.261,-0.378 0.258,-0.381C0.254,-0.389 0.249,-0.395 0.243,-0.399C0.238,-0.406 0.232,-0.41 0.225,-0.411L0.215,-0.413L0.153,-0.353L0.153,-0.112C0.155,-0.106 0.158,-0.099 0.163,-0.092C0.167,-0.085 0.171,-0.079 0.175,-0.075C0.176,-0.074 0.178,-0.073 0.179,-0.071C0.18,-0.068 0.181,-0.067 0.182,-0.067C0.182,-0.066 0.183,-0.065 0.184,-0.064C0.153,-0.03 0.126,-0.008 0.105,0.002L0.031,-0.066L0.06,-0.097L0.06,-0.376C0.06,-0.379 0.058,-0.384 0.055,-0.389C0.053,-0.392 0.05,-0.397 0.045,-0.403C0.041,-0.405 0.039,-0.407 0.039,-0.409L0.017,-0.401L0.008,-0.415L0.089,-0.498Z" style="fill:rgb(64,64,64);fill-rule:nonzero;"/>
            </g>
            <g transform="matrix(449.195,0,0,449.195,2218.99,1473.13)">
                <path d="M0.339,-0.562L0.349,-0.562C0.359,-0.558 0.365,-0.553 0.368,-0.548C0.373,-0.537 0.376,-0.529 0.377,-0.524C0.377,-0.523 0.377,-0.522 0.378,-0.521L0.378,-0.505C0.377,-0.503 0.377,-0.501 0.377,-0.498L0.374,-0.486L0.374,-0.483C0.373,-0.482 0.373,-0.482 0.373,-0.481L0.373,-0.479C0.372,-0.478 0.372,-0.478 0.372,-0.477L0.264,-0.322L0.357,-0.264L0.357,-0.072C0.328,-0.06 0.308,-0.05 0.295,-0.042C0.272,-0.029 0.254,-0.016 0.239,-0.004C0.238,-0.004 0.237,-0.004 0.236,-0.003C0.235,-0.002 0.234,-0.001 0.233,-0.001C0.232,-0 0.231,0 0.23,0.001C0.229,0.002 0.229,0.002 0.228,0.003C0.227,0.004 0.226,0.004 0.225,0.004C0.218,0 0.206,-0.005 0.191,-0.012C0.18,-0.016 0.168,-0.02 0.155,-0.023C0.154,-0.023 0.151,-0.024 0.147,-0.025C0.146,-0.025 0.144,-0.025 0.142,-0.026L0.138,-0.026C0.134,-0.026 0.131,-0.026 0.129,-0.027L0.111,-0.027C0.109,-0.026 0.106,-0.026 0.102,-0.026C0.093,-0.025 0.078,-0.021 0.056,-0.014C0.051,-0.012 0.042,-0.007 0.031,-0L0.017,-0.01L0.136,-0.184L0.045,-0.24L0.045,-0.411C0.077,-0.422 0.112,-0.446 0.149,-0.483L0.155,-0.489C0.156,-0.49 0.156,-0.491 0.157,-0.492C0.158,-0.493 0.158,-0.493 0.158,-0.493C0.158,-0.493 0.159,-0.494 0.161,-0.496L0.264,-0.459C0.267,-0.456 0.269,-0.455 0.27,-0.455L0.273,-0.455C0.274,-0.454 0.275,-0.454 0.276,-0.454C0.282,-0.452 0.286,-0.451 0.287,-0.451C0.288,-0.45 0.29,-0.45 0.293,-0.45C0.299,-0.45 0.303,-0.45 0.305,-0.451C0.311,-0.453 0.319,-0.456 0.329,-0.459C0.333,-0.462 0.337,-0.465 0.34,-0.467C0.343,-0.468 0.346,-0.474 0.349,-0.485L0.349,-0.504C0.348,-0.505 0.346,-0.507 0.343,-0.508C0.343,-0.509 0.341,-0.512 0.337,-0.515C0.336,-0.518 0.335,-0.521 0.333,-0.522C0.33,-0.523 0.329,-0.523 0.329,-0.524L0.326,-0.527L0.326,-0.528C0.325,-0.528 0.325,-0.528 0.325,-0.529L0.325,-0.531C0.324,-0.531 0.324,-0.532 0.323,-0.533C0.322,-0.534 0.322,-0.534 0.322,-0.535L0.322,-0.539C0.322,-0.54 0.322,-0.541 0.323,-0.542C0.323,-0.543 0.325,-0.546 0.328,-0.551C0.33,-0.554 0.333,-0.556 0.337,-0.559L0.338,-0.56L0.339,-0.56L0.339,-0.562ZM0.207,-0.242L0.11,-0.101C0.111,-0.1 0.113,-0.099 0.116,-0.099C0.117,-0.099 0.118,-0.099 0.119,-0.1L0.122,-0.1C0.131,-0.101 0.138,-0.102 0.141,-0.102C0.143,-0.102 0.146,-0.102 0.149,-0.103L0.164,-0.103C0.165,-0.102 0.167,-0.102 0.171,-0.102L0.179,-0.102C0.181,-0.101 0.184,-0.101 0.188,-0.101C0.192,-0.1 0.199,-0.099 0.209,-0.097C0.214,-0.096 0.221,-0.093 0.23,-0.09C0.244,-0.085 0.258,-0.078 0.271,-0.07L0.271,-0.2L0.207,-0.242ZM0.134,-0.291L0.19,-0.258L0.279,-0.386C0.276,-0.383 0.273,-0.382 0.27,-0.382L0.265,-0.382C0.263,-0.381 0.261,-0.381 0.26,-0.381L0.254,-0.381C0.253,-0.38 0.252,-0.38 0.249,-0.38L0.24,-0.38C0.242,-0.38 0.224,-0.382 0.187,-0.387C0.175,-0.39 0.157,-0.396 0.134,-0.405L0.134,-0.291Z" style="fill:rgb(64,64,64);fill-rule:nonzero;"/>
            </g>
        </g>
    </g>
</svg>
