<?xml version="1.0" encoding="UTF-8" standalone="no"?><!DOCTYPE svg PUBLIC "-//W3C//DTD SVG 1.1//EN" "http://www.w3.org/Graphics/SVG/1.1/DTD/svg11.dtd"><svg width="100%" height="100%" viewBox="0 0 2159 192" version="1.1" xmlns="http://www.w3.org/2000/svg" xmlns:xlink="http://www.w3.org/1999/xlink" xml:space="preserve" xmlns:serif="http://www.serif.com/" style="fill-rule:evenodd;clip-rule:evenodd;stroke-linejoin:round;stroke-miterlimit:2;"><g transform="matrix(1,0,0,1,-394.072,-2255.56)"><g transform="matrix(0.98596,0,0,1,5.50805,0)"><g transform="matrix(200,0,0,200,392.3,2391.52)"><path d="M0.013,-0.085c0,0.202 0.186,0.365 0.416,0.365c0.263,0 0.477,-0.185 0.477,-0.412l-0,-0.383c-0,-0.058 0.019,-0.08 0.07,-0.08l-0,-0.005l-0.38,0c-0.016,0 -0.02,0.002 -0.027,0.009l-0.001,0l-0.001,-0.084l-0.009,0l-0.015,0.268l0.008,0.001l0.015,-0.037c0.035,-0.085 0.083,-0.122 0.177,-0.122l0.06,-0l-0,0.002c-0.007,0.007 -0.009,0.01 -0.009,0.026l-0,0.423c-0,0.198 -0.165,0.359 -0.369,0.359c-0.214,-0 -0.387,-0.146 -0.387,-0.329c-0,-0.154 0.139,-0.279 0.31,-0.279c0.14,0 0.253,0.113 0.253,0.253c-0,0.111 -0.073,0.205 -0.18,0.231c0.133,-0 0.241,-0.104 0.241,-0.233c-0,-0.149 -0.141,-0.27 -0.314,-0.27c-0.185,0 -0.335,0.133 -0.335,0.297Z" style="fill:#808080;fill-rule:nonzero;"/></g></g><g transform="matrix(0.98596,0,0,1,8.23794,0)"><g transform="matrix(166.667,0,0,166.667,586.732,2391.52)"><path d="M0.005,-0l0.228,-0l0,-0.005l-0.048,-0.005c-0.028,-0.003 -0.045,-0.024 -0.045,-0.049c-0,-0.009 0.002,-0.018 0.007,-0.028l0.028,-0.055c0.039,-0.068 0.125,-0.095 0.219,-0.095l0.092,0l-0.017,-0.041l-0.07,0c-0.077,0 -0.145,0.028 -0.196,0.08l0.156,-0.308c0.01,-0.021 0.014,-0.033 0.014,-0.041l0.007,-0c0,0.013 0.001,0.03 0.007,0.043l0.211,0.446c0.008,0.017 0.017,0.034 0.031,0.039l-0,0.002l-0.096,0.012l0,0.005l0.272,-0l0,-0.005l-0.029,-0.004c-0.037,-0.005 -0.049,-0.028 -0.066,-0.062l-0.225,-0.48c-0.01,-0.021 -0.012,-0.038 -0.013,-0.049c-0.055,0 -0.078,-0.011 -0.078,-0.04l-0.004,0l-0.281,0.559c-0.018,0.036 -0.041,0.067 -0.076,0.072l-0.028,0.004l0,0.005Z" style="fill:#808080;fill-rule:nonzero;"/></g><g transform="matrix(166.667,0,0,166.667,721.732,2391.52)"><path d="M0.009,-0l0.239,-0l0,-0.008c-0.074,0 -0.098,-0.017 -0.098,-0.075c0,-0.004 0,-0.009 0,-0.014l0.02,-0.353c0.001,-0.009 0.001,-0.017 0.001,-0.024c0,-0.007 0,-0.013 -0.001,-0.018l0.009,0c0,0.003 0.002,0.025 0.012,0.042l0.28,0.429c0.003,0.005 0.007,0.013 0.007,0.026l0.006,0c0.001,-0.014 0.003,-0.021 0.006,-0.026l0.264,-0.424c0.013,-0.02 0.018,-0.038 0.018,-0.041l0.007,0c-0.001,0.008 -0.002,0.018 -0.002,0.03c0,0.004 0,0.009 0,0.014l0.024,0.348c0.001,0.005 0.001,0.01 0.001,0.015c-0,0.066 -0.036,0.071 -0.091,0.071l0,0.008l0.309,-0l0,-0.008c-0.089,-0 -0.102,-0.021 -0.108,-0.1l-0.028,-0.412c0,-0.004 0,-0.007 0,-0.011c0,-0.037 0.016,-0.054 0.063,-0.059l0.046,-0.005l0,-0.005l-0.178,0l-0.275,0.441c-0.009,0.013 -0.016,0.036 -0.016,0.042l-0.005,0c-0,-0.006 -0.001,-0.033 -0.013,-0.052l-0.281,-0.431l-0.191,0l-0,0.005l0.038,0.006c0.046,0.007 0.068,0.022 0.068,0.06c0,0.002 0,0.004 -0,0.006l-0.023,0.423c-0.005,0.084 -0.024,0.09 -0.108,0.092l-0,0.008Z" style="fill:#808080;fill-rule:nonzero;"/></g><g transform="matrix(166.667,0,0,166.667,893.398,2391.52)"><path d="M0.015,-0l0.62,-0c0.016,-0 0.02,-0.002 0.027,-0.009l0.001,0l0.006,0.079l0.006,0l0.014,-0.263l-0.005,0l-0.012,0.03c-0.038,0.095 -0.099,0.125 -0.201,0.125l-0.261,0l-0,-0.001c0.017,-0.018 0.021,-0.047 0.021,-0.092l0,-0.152l0.07,0.001c0.087,-0.001 0.115,0.007 0.138,0.101l0.006,0.025l0.005,0l-0,-0.291l-0.005,0l-0.006,0.025c-0.023,0.094 -0.051,0.102 -0.138,0.102l-0.07,-0l-0,-0.149c-0,-0.045 -0.004,-0.074 -0.021,-0.092l-0,-0.001l0.217,-0c0.102,-0 0.163,0.03 0.201,0.125l0.012,0.03l0.005,-0l-0.015,-0.268l-0.009,-0l-0.002,0.084l-0.002,-0c-0.007,-0.007 -0.01,-0.009 -0.026,-0.009l-0.576,0l-0,0.008c0.094,0 0.105,0.01 0.105,0.097l-0,0.36c-0,0.114 -0.011,0.127 -0.105,0.127l-0,0.008Z" style="fill:#808080;fill-rule:nonzero;"/></g></g><g transform="matrix(0.98596,0,0,1,14.2275,0)"><g transform="matrix(166.667,0,0,166.667,1013.32,2391.52)"><path d="M0.075,-0.263l0.015,0.312l0.01,0l0,-0.096c0,-0.018 0,-0.059 -0.002,-0.069l0.004,-0.001c0.005,0.017 0.021,0.036 0.029,0.043c0.077,0.061 0.181,0.079 0.272,0.079c0.212,0 0.354,-0.067 0.354,-0.167c0,-0.149 -0.138,-0.176 -0.277,-0.19c-0.138,-0.015 -0.277,-0.015 -0.277,-0.109c0,-0.065 0.082,-0.108 0.206,-0.108c0.119,0 0.208,0.08 0.251,0.171l0.007,0.016l0.008,0l-0.014,-0.282l-0.011,0l0,0.099c0,0.017 0.002,0.03 0.003,0.039l-0.005,0.001c-0.001,-0.003 -0.014,-0.021 -0.023,-0.026c-0.061,-0.043 -0.14,-0.054 -0.212,-0.054c-0.18,0 -0.301,0.067 -0.301,0.167c0,0.14 0.138,0.161 0.276,0.174c0.138,0.013 0.276,0.017 0.276,0.119c0,0.068 -0.102,0.114 -0.256,0.114c-0.14,0 -0.267,-0.091 -0.31,-0.197l-0.015,-0.035l-0.008,0Z" style="fill:#808080;fill-rule:nonzero;"/></g></g><g transform="matrix(0.98596,0,0,1,16.9546,0)"><g transform="matrix(200,0,0,200,1207.56,2391.52)"><path d="M0.005,-0l0.228,-0l0,-0.005l-0.048,-0.005c-0.028,-0.003 -0.045,-0.024 -0.045,-0.049c-0,-0.009 0.002,-0.018 0.007,-0.028l0.028,-0.055c0.039,-0.068 0.125,-0.095 0.219,-0.095l0.092,0l-0.017,-0.041l-0.07,0c-0.077,0 -0.145,0.028 -0.196,0.08l0.156,-0.308c0.01,-0.021 0.014,-0.033 0.014,-0.041l0.007,-0c0,0.013 0.001,0.03 0.007,0.043l0.211,0.446c0.008,0.017 0.017,0.034 0.031,0.039l-0,0.002l-0.096,0.012l0,0.005l0.272,-0l0,-0.005l-0.029,-0.004c-0.037,-0.005 -0.049,-0.028 -0.066,-0.062l-0.225,-0.48c-0.01,-0.021 -0.012,-0.038 -0.013,-0.049c-0.055,0 -0.078,-0.011 -0.078,-0.04l-0.004,0l-0.281,0.559c-0.018,0.036 -0.041,0.067 -0.076,0.072l-0.028,0.004l0,0.005Z" style="fill:#808080;fill-rule:nonzero;"/></g></g><g transform="matrix(0.98596,0,0,1,19.1972,0)"><g transform="matrix(200,0,0,200,1367.28,2391.52)"><path d="M0.048,-0.051c0,0.032 0.025,0.057 0.056,0.057c0.031,0 0.056,-0.025 0.056,-0.057c0,-0.03 -0.025,-0.055 -0.056,-0.055c-0.031,0 -0.056,0.025 -0.056,0.056Z" style="fill:#808080;fill-rule:nonzero;"/></g></g><g transform="matrix(0.98596,0,0,1,20.6037,0)"><g transform="matrix(200,0,0,200,1467.46,2391.52)"><path d="M0.06,-0.3c0,0.183 0.149,0.305 0.37,0.305c0.224,-0 0.372,-0.122 0.372,-0.305c0,-0.183 -0.149,-0.305 -0.37,-0.305c-0.224,0 -0.372,0.122 -0.372,0.305Zm0.119,0.009c-0,-0.181 0.088,-0.278 0.251,-0.278c0.151,-0 0.253,0.116 0.253,0.288c0,0.162 -0.088,0.25 -0.25,0.25c-0.152,-0 -0.254,-0.104 -0.254,-0.26Z" style="fill:#808080;fill-rule:nonzero;"/></g></g><g transform="matrix(0.98596,0,0,1,22.9902,0)"><g transform="matrix(166.667,0,0,166.667,1637.44,2391.52)"><path d="M0,-0.595l0.031,0.004c0.031,0.004 0.052,0.03 0.068,0.062l0.262,0.524l0.008,-0c0.026,-0 0.046,0.017 0.046,0.038c0,0.005 -0.001,0.011 -0.004,0.016l-0.001,0.005l0.005,0.002l0.271,-0.564c0.021,-0.043 0.045,-0.076 0.083,-0.082l0.032,-0.005l0,-0.005l-0.251,0l0,0.005l0.062,0.006c0.032,0.003 0.046,0.023 0.046,0.046c-0,0.011 -0.003,0.023 -0.009,0.035l-0.192,0.4c-0.008,0.017 -0.013,0.031 -0.013,0.048l-0.006,0c-0,-0.017 -0.005,-0.032 -0.013,-0.048l-0.217,-0.434c-0.008,-0.016 -0.022,-0.036 -0.043,-0.043l0,-0.002l0.086,-0.008l0,-0.005l-0.251,-0l0,0.005Z" style="fill:#808080;fill-rule:nonzero;"/></g><g transform="matrix(166.667,0,0,166.667,1770.94,2391.52)"><path d="M0.015,-0l0.62,-0c0.016,-0 0.02,-0.002 0.027,-0.009l0.001,0l0.006,0.079l0.006,0l0.014,-0.263l-0.005,0l-0.012,0.03c-0.038,0.095 -0.099,0.125 -0.201,0.125l-0.261,0l-0,-0.001c0.017,-0.018 0.021,-0.047 0.021,-0.092l0,-0.152l0.07,0.001c0.087,-0.001 0.115,0.007 0.138,0.101l0.006,0.025l0.005,0l-0,-0.291l-0.005,0l-0.006,0.025c-0.023,0.094 -0.051,0.102 -0.138,0.102l-0.07,-0l-0,-0.149c-0,-0.045 -0.004,-0.074 -0.021,-0.092l-0,-0.001l0.217,-0c0.102,-0 0.163,0.03 0.201,0.125l0.012,0.03l0.005,-0l-0.015,-0.268l-0.009,-0l-0.002,0.084l-0.002,-0c-0.007,-0.007 -0.01,-0.009 -0.026,-0.009l-0.576,0l-0,0.008c0.094,0 0.105,0.01 0.105,0.097l-0,0.36c-0,0.114 -0.011,0.127 -0.105,0.127l-0,0.008Z" style="fill:#808080;fill-rule:nonzero;"/></g><g transform="matrix(166.667,0,0,166.667,1896.94,2391.52)"><path d="M0.015,-0l0.301,-0l0,-0.008c-0.062,0 -0.085,-0.025 -0.085,-0.092l0,-0.227c0,-0.131 0.113,-0.237 0.253,-0.237c0.08,0 0.134,0.052 0.134,0.129c0,0.089 -0.076,0.161 -0.169,0.161l-0.153,0l0,0.014l0.083,0.01c0.051,0.005 0.088,0.073 0.132,0.14c0.045,0.067 0.098,0.133 0.182,0.133c0.083,-0 0.134,-0.056 0.134,-0.159l-0.005,-0c0,0.066 -0.037,0.106 -0.098,0.106c-0.043,-0 -0.078,-0.055 -0.113,-0.109c-0.032,-0.051 -0.066,-0.098 -0.11,-0.103l0.002,-0.007c0.132,-0.011 0.234,-0.09 0.234,-0.186c0,-0.103 -0.093,-0.17 -0.234,-0.17c-0.13,0 -0.229,0.06 -0.272,0.158l0,-0.066c0,-0.045 -0.019,-0.074 -0.035,-0.092l-0.181,0.005l0,0.008c0.095,0 0.105,0.011 0.105,0.112l0,0.36c0,0.101 -0.01,0.112 -0.105,0.112l0,0.008Z" style="fill:#808080;fill-rule:nonzero;"/></g><g transform="matrix(166.667,0,0,166.667,2033.86,2391.52)"><path d="M0.03,-0.397l0.01,0l0.015,-0.04c0.036,-0.094 0.072,-0.125 0.162,-0.125l0.111,0l0,0.457c0,0.087 -0.011,0.097 -0.105,0.097l-0,0.008l0.321,0l0,-0.008c-0.095,0 -0.105,-0.01 -0.105,-0.097l-0,-0.457l0.111,0c0.09,0 0.126,0.031 0.162,0.125l0.015,0.04l0.01,0l-0.017,-0.262l-0.011,0.001l0.005,0.058l-0.661,0l0.005,-0.058l-0.011,-0.001l-0.017,0.262Z" style="fill:#808080;fill-rule:nonzero;"/></g><g transform="matrix(166.667,0,0,166.667,2159.67,2391.52)"><path d="M0.06,-0.3c0,0.183 0.149,0.305 0.37,0.305c0.224,-0 0.372,-0.122 0.372,-0.305c0,-0.183 -0.149,-0.305 -0.37,-0.305c-0.224,0 -0.372,0.122 -0.372,0.305Zm0.119,0.009c-0,-0.181 0.088,-0.278 0.251,-0.278c0.151,-0 0.253,0.116 0.253,0.288c0,0.162 -0.088,0.25 -0.25,0.25c-0.152,-0 -0.254,-0.104 -0.254,-0.26Z" style="fill:#808080;fill-rule:nonzero;"/></g></g><g transform="matrix(0.98596,0,0,1,32.2085,0)"><g transform="matrix(200,0,0,200,2293.99,2391.52)"><path d="M0.015,-0l0.315,-0l0,-0.008c-0.095,0 -0.105,-0.01 -0.105,-0.097l-0,-0.3l0.16,-0.04c0.014,-0.004 0.026,-0.005 0.041,-0.005c0.086,0 0.133,0.047 0.133,0.135l0,0.156c0,0.197 0.177,0.357 0.394,0.357c0.197,0 0.356,-0.142 0.356,-0.316c0,-0.158 -0.132,-0.287 -0.295,-0.287c-0.131,0 -0.237,0.092 -0.237,0.206c0,0.087 0.068,0.157 0.152,0.157c-0.064,-0.015 -0.102,-0.081 -0.102,-0.156c0,-0.104 0.084,-0.189 0.187,-0.189c0.153,0 0.277,0.121 0.277,0.269c0,0.164 -0.151,0.298 -0.338,0.298c-0.159,0 -0.289,-0.131 -0.289,-0.293l0,-0.214c0,-0.116 -0.083,-0.178 -0.236,-0.178c-0.055,-0 -0.197,0.088 -0.203,0.092c0,-0.036 -0.004,-0.069 -0.028,-0.092l-0.172,0.005l0,0.008c0.086,-0 0.095,0.01 0.095,0.097l0,0.29c0,0.087 -0.01,0.097 -0.105,0.097l0,0.008Z" style="fill:#808080;fill-rule:nonzero;"/></g></g></g></svg>